Coordinates
version=1
nRows=21
nColumns=12
inDegrees=yes

Units are S.I. units (second, meters, Newtons, ...)
Angles are in degrees

endheader
time	SC_y	SC_z	SC_x	AC_y	AC_z	AC_x	GH_y	GH_z	GH_yy	EL_x	PS_y
       0.0               -52.9           13.7           15.0          37.44          4.272          7.538         -68.43          39.21          111.4          137.3          107.7
  0.001047               -52.9          13.71          15.01          37.44          4.271          7.538         -68.42          39.21          111.4          137.2          107.7
  0.002095               -52.9          13.71          15.02          37.44          4.271          7.538          -68.4          39.21          111.4          137.2          107.7
  0.003142               -52.9          13.72          15.03          37.44          4.271          7.538         -68.38          39.21          111.4          137.2          107.7
   0.00419               -52.9          13.72          15.04          37.44          4.271          7.539         -68.36          39.21          111.4          137.2          107.7
  0.005237               -52.9          13.72          15.05          37.44           4.27          7.539         -68.34          39.21          111.4          137.2          107.7
  0.006285               -52.9          13.73          15.06          37.45           4.27          7.539         -68.32          39.21          111.4          137.1          107.7
  0.007332               -52.9          13.74          15.07          37.45          4.269          7.539          -68.3          39.21          111.4          137.1          107.7
   0.00838               -52.9          13.74          15.09          37.45          4.269           7.54         -68.27          39.21          111.4          137.1          107.7
  0.009427               -52.9          13.75           15.1          37.45          4.268           7.54         -68.25          39.21          111.4          137.1          107.7
   0.01047               -52.9          13.75          15.12          37.45          4.268           7.54         -68.22          39.21          111.4          137.0          107.7
   0.01152               -52.9          13.76          15.13          37.46          4.267           7.54         -68.19          39.21          111.4          137.0          107.7
   0.01257               -52.9          13.77          15.15          37.46          4.267          7.541         -68.16          39.21          111.4          137.0          107.6
   0.01362               -52.9          13.78          15.17          37.46          4.266          7.541         -68.12          39.21          111.4          136.9          107.6
   0.01466               -52.9          13.79          15.19          37.47          4.266          7.542         -68.08          39.21          111.4          136.9          107.6
   0.01571               -52.9           13.8          15.22          37.47          4.265          7.542         -68.04          39.21          111.4          136.8          107.6
   0.01676              -52.89          13.81          15.24          37.47          4.264          7.542          -68.0          39.21          111.4          136.8          107.6
   0.01781              -52.89          13.82          15.27          37.48          4.263          7.543         -67.95          39.21          111.4          136.7          107.6
   0.01885              -52.89          13.83           15.3          37.48          4.262          7.544         -67.89          39.21          111.4          136.7          107.6
    0.0199              -52.89          13.85          15.33          37.49          4.261          7.544         -67.84          39.21          111.4          136.6          107.6
   0.02095              -52.89          13.86          15.37          37.49           4.26          7.545         -67.77          39.21          111.4          136.5          107.6
